<svg viewBox="0 0 24 24" fill="currentColor" xmlns="http://www.w3.org/2000/svg">
<path d="M17.639 11.2878H12.9951V5.16098C12.9951 4.59512 12.5366 4.13658 11.9707 4.13658C11.4049 4.13658 10.9463 4.59512 10.9463 5.16098V12.3122C11.0439 12.9073 11.5707 13.3463 12.1756 13.3366H17.639C18.2049 13.3366 18.6634 12.878 18.6634 12.3122C18.6634 11.7463 18.2049 11.2878 17.639 11.2878ZM12 0C5.38537 0 0 5.38537 0 12C0 18.6146 5.38537 24 12 24C18.6146 24 24 18.6146 24 12C24 5.38537 18.6146 0 12 0ZM12 22.0488C6.45854 22.0488 1.95122 17.5415 1.95122 12C1.95122 6.45854 6.45854 1.95122 12 1.95122C17.5415 1.95122 22.0488 6.45854 22.0488 12C22.0488 17.5415 17.5415 22.0488 12 22.0488Z"/>
</svg>
