<svg width="24" height="24" viewBox="0 0 24 24" stroke="currentColor" fill="currentColor" xmlns="http://www.w3.org/2000/svg">
    <circle cx="12" cy="12" r="11" stroke-width="2" fill="#ffffff"/>
    <path d="M13.3939 16.6432H10.5095V19.5H13.3939V16.6432Z"/>
    <path d="M13.3939 15.2147V14.2934C14.2507 14.0405 15.0244 13.5667 15.6358 12.9205C16.2472 12.2743 16.6744 11.479 16.8737 10.6157C17.073 9.7524 17.0373 8.85218 16.7702 8.00705C16.5031 7.16191 16.0142 6.40218 15.3536 5.80551C14.6929 5.20885 13.8841 4.79665 13.0098 4.61106C12.1356 4.42546 11.2273 4.47313 10.3777 4.74919C9.52817 5.02525 8.76788 5.5198 8.17455 6.18228C7.58122 6.84475 7.17615 7.6514 7.00073 8.51976L9.83028 9.08113C9.91058 8.68321 10.1033 8.31607 10.3861 8.02241C10.6688 7.72874 11.0299 7.52064 11.4274 7.42231C11.8249 7.32398 12.2424 7.33947 12.6313 7.46697C13.0203 7.59447 13.3646 7.82874 13.6244 8.14253C13.8842 8.45631 14.0486 8.83671 14.0987 9.23946C14.1487 9.6422 14.0822 10.0507 13.907 10.4175C13.7318 10.7843 13.455 11.0943 13.1088 11.3114C12.7627 11.5284 12.3614 11.6437 11.9517 11.6437C11.5692 11.6437 11.2024 11.7942 10.932 12.0621C10.6615 12.33 10.5095 12.6933 10.5095 13.0721V15.2147H13.3939Z"/>
</svg>
