<svg viewBox="0 0 32 32" fill="currentColor" xmlns="http://www.w3.org/2000/svg">
<path d="M19.7048 13.5576C19.7048 13.8837 19.5752 14.1964 19.3447 14.427C19.1141 14.6575 18.8014 14.7871 18.4754 14.7871H14.7871V18.4754C14.7871 18.8014 14.6575 19.1141 14.427 19.3447C14.1964 19.5752 13.8837 19.7048 13.5576 19.7048C13.2316 19.7048 12.9189 19.5752 12.6883 19.3447C12.4578 19.1141 12.3282 18.8014 12.3282 18.4754V14.7871H8.63995C8.31388 14.7871 8.00117 14.6575 7.77061 14.427C7.54005 14.1964 7.41052 13.8837 7.41052 13.5576C7.41052 13.2316 7.54005 12.9189 7.77061 12.6883C8.00117 12.4578 8.31388 12.3282 8.63995 12.3282H12.3282V8.63995C12.3282 8.31388 12.4578 8.00117 12.6883 7.77061C12.9189 7.54005 13.2316 7.41052 13.5576 7.41052C13.8837 7.41052 14.1964 7.54005 14.427 7.77061C14.6575 8.00117 14.7871 8.31388 14.7871 8.63995V12.3282H18.4754C18.8014 12.3282 19.1141 12.4578 19.3447 12.6883C19.5752 12.9189 19.7048 13.2316 19.7048 13.5576ZM31.6394 31.6394C31.5252 31.7537 31.3897 31.8444 31.2404 31.9063C31.0912 31.9682 30.9312 32 30.7696 32C30.608 32 30.4481 31.9682 30.2988 31.9063C30.1496 31.8444 30.014 31.7537 29.8998 31.6394L22.2067 23.9448C19.5291 26.175 16.0949 27.2871 12.6183 27.0497C9.14167 26.8124 5.89042 25.2438 3.54086 22.6704C1.1913 20.0969 -0.0756755 16.7167 0.00349928 13.2329C0.0826741 9.74915 1.5019 6.43 3.96595 3.96595C6.43 1.5019 9.74915 0.0826741 13.2329 0.00349928C16.7167 -0.0756755 20.0969 1.1913 22.6704 3.54086C25.2438 5.89042 26.8124 9.14167 27.0497 12.6183C27.2871 16.0949 26.175 19.5291 23.9448 22.2067L31.6394 29.8998C31.7537 30.014 31.8444 30.1496 31.9063 30.2988C31.9682 30.4481 32 30.608 32 30.7696C32 30.9312 31.9682 31.0912 31.9063 31.2404C31.8444 31.3897 31.7537 31.5252 31.6394 31.6394ZM13.5576 24.6225C15.7461 24.6225 17.8853 23.9735 19.7049 22.7577C21.5245 21.5419 22.9428 19.8138 23.7802 17.792C24.6177 15.7701 24.8368 13.5454 24.4099 11.399C23.9829 9.25264 22.9291 7.28108 21.3817 5.73363C19.8342 4.18619 17.8627 3.13237 15.7163 2.70543C13.5699 2.27849 11.3452 2.49761 9.32332 3.33508C7.30149 4.17255 5.5734 5.59076 4.35758 7.41036C3.14176 9.22996 2.49282 11.3692 2.49282 13.5576C2.49607 16.4912 3.66287 19.3037 5.73723 21.3781C7.81158 23.4524 10.6241 24.6192 13.5576 24.6225Z" />
</svg>
